<svg width="58" height="58" viewBox="0 0 58 58" fill="none" xmlns="http://www.w3.org/2000/svg">
<path d="M28.9998 30.2085C26.7565 30.2085 24.6051 31.0996 23.0189 32.6859C21.4326 34.2721 20.5415 36.4235 20.5415 38.6668C20.5415 40.9101 21.4326 43.0615 23.0189 44.6478C24.6051 46.234 26.7565 47.1252 28.9998 47.1252C31.2431 47.1252 33.3945 46.234 34.9808 44.6478C36.567 43.0615 37.4582 40.9101 37.4582 38.6668C37.4582 36.4235 36.567 34.2721 34.9808 32.6859C33.3945 31.0996 31.2431 30.2085 28.9998 30.2085ZM25.3748 38.6668C25.3748 37.7054 25.7568 36.7834 26.4366 36.1036C27.1164 35.4237 28.0384 35.0418 28.9998 35.0418C29.9612 35.0418 30.8833 35.4237 31.5631 36.1036C32.2429 36.7834 32.6248 37.7054 32.6248 38.6668C32.6248 39.6282 32.2429 40.5503 31.5631 41.2301C30.8833 41.9099 29.9612 42.2918 28.9998 42.2918C28.0384 42.2918 27.1164 41.9099 26.4366 41.2301C25.7568 40.5503 25.3748 39.6282 25.3748 38.6668Z" fill="white"/>
<path d="M42.3545 12.3639L34.6719 1.59277L6.4235 24.1596L4.8575 24.1427V24.1669H3.625V53.1669H54.375V24.1669H52.0502L47.4247 10.6359L42.3545 12.3639ZM46.9437 24.1669H22.7094L40.7595 18.014L44.4377 16.8371L46.9437 24.1669ZM37.5792 13.9927L18.9467 20.3437L33.7028 8.55519L37.5792 13.9927ZM8.45833 43.9086V33.4203C9.47791 33.059 10.404 32.4747 11.1691 31.71C11.9342 30.9453 12.519 30.0196 12.8808 29.0002H45.1192C45.4809 30.0199 46.0656 30.9461 46.8307 31.7112C47.5957 32.4763 48.5219 33.061 49.5417 33.4227V43.911C48.5219 44.2727 47.5957 44.8574 46.8307 45.6225C46.0656 46.3876 45.4809 47.3138 45.1192 48.3335H12.8857C12.5236 47.3129 11.9382 46.386 11.1723 45.6205C10.4063 44.855 9.47914 44.2701 8.45833 43.9086Z" fill="white"/>
</svg>
