<svg width="58" height="58" viewBox="0 0 58 58" fill="none" xmlns="http://www.w3.org/2000/svg">
<path d="M15.9864 50.75C14.8747 50.75 13.9467 50.3778 13.2024 49.6335C12.4565 48.8876 12.0835 47.9588 12.0835 46.8471V11.1529C12.0835 10.0412 12.4565 9.11325 13.2024 8.36892C13.9467 7.62297 14.8747 7.25 15.9864 7.25H42.0139C43.1256 7.25 44.0536 7.62297 44.7979 8.36892C45.5439 9.11325 45.9168 10.0412 45.9168 11.1529V46.8471C45.9168 47.9588 45.5447 48.8868 44.8003 49.6311C44.0544 50.377 43.1256 50.75 42.0139 50.75H15.9864ZM15.9864 48.3333H42.0139C42.3845 48.3333 42.7252 48.1787 43.0362 47.8693C43.3455 47.5584 43.5002 47.2176 43.5002 46.8471V11.1529C43.5002 10.7824 43.3455 10.4416 43.0362 10.1307C42.7252 9.82133 42.3845 9.66667 42.0139 9.66667H38.6668V24.4446L33.8335 21.5639L29.0002 24.4446V9.66667H15.9864C15.6159 9.66667 15.2751 9.82133 14.9642 10.1307C14.6548 10.4416 14.5002 10.7824 14.5002 11.1529V46.8471C14.5002 47.2176 14.6548 47.5584 14.9642 47.8693C15.2751 48.1787 15.6159 48.3333 15.9864 48.3333Z" fill="white"/>
</svg>
