<svg width="60" height="59" viewBox="0 0 60 59" fill="none" xmlns="http://www.w3.org/2000/svg">
<path d="M21.6125 50.3958C22.1526 52.1706 23.2604 53.7266 24.7715 54.833C26.2825 55.9393 28.1161 56.5368 30 56.5368C31.8839 56.5368 33.7175 55.9393 35.2285 54.833C36.7396 53.7266 37.8474 52.1706 38.3875 50.3958H21.6125ZM7.5 47.9375H52.5V40.5625L47.5 33.1875V20.8958C47.5 18.636 47.0474 16.3983 46.1679 14.3105C45.2884 12.2227 43.9994 10.3256 42.3744 8.7277C40.7493 7.12976 38.8202 5.86221 36.697 4.99741C34.5738 4.13261 32.2981 3.6875 30 3.6875C27.7019 3.6875 25.4262 4.13261 23.303 4.99741C21.1798 5.86221 19.2507 7.12976 17.6256 8.7277C16.0006 10.3256 14.7116 12.2227 13.8321 14.3105C12.9527 16.3983 12.5 18.636 12.5 20.8958V33.1875L7.5 40.5625V47.9375Z" fill="black"/>
</svg>
