<svg width="84" height="84" viewBox="0 0 84 84" fill="none" xmlns="http://www.w3.org/2000/svg">
<path fill-rule="evenodd" clip-rule="evenodd" d="M56 31.5C56 35.213 54.525 38.774 51.8995 41.3995C49.274 44.025 45.713 45.5 42 45.5C38.287 45.5 34.726 44.025 32.1005 41.3995C29.475 38.774 28 35.213 28 31.5C28 27.787 29.475 24.226 32.1005 21.6005C34.726 18.975 38.287 17.5 42 17.5C45.713 17.5 49.274 18.975 51.8995 21.6005C54.525 24.226 56 27.787 56 31.5ZM49 31.5C49 33.3565 48.2625 35.137 46.9497 36.4497C45.637 37.7625 43.8565 38.5 42 38.5C40.1435 38.5 38.363 37.7625 37.0503 36.4497C35.7375 35.137 35 33.3565 35 31.5C35 29.6435 35.7375 27.863 37.0503 26.5503C38.363 25.2375 40.1435 24.5 42 24.5C43.8565 24.5 45.637 25.2375 46.9497 26.5503C48.2625 27.863 49 29.6435 49 31.5Z" fill="black"/>
<path fill-rule="evenodd" clip-rule="evenodd" d="M42 3.5C20.7375 3.5 3.5 20.7375 3.5 42C3.5 63.2625 20.7375 80.5 42 80.5C63.2625 80.5 80.5 63.2625 80.5 42C80.5 20.7375 63.2625 3.5 42 3.5ZM10.5 42C10.5 49.315 12.9955 56.049 17.178 61.397C20.1153 57.5396 23.9046 54.4136 28.25 52.2631C32.5954 50.1126 37.3791 48.9958 42.2275 49C47.0131 48.9955 51.7367 50.0833 56.0383 52.1807C60.3398 54.2781 64.1059 57.3297 67.0495 61.103C70.0821 57.1256 72.1239 52.4833 73.0061 47.5601C73.8883 42.6369 73.5855 37.5744 72.1227 32.7914C70.66 28.0085 68.0793 23.6427 64.5942 20.0551C61.1091 16.4676 56.8199 13.7615 52.0813 12.1608C47.3428 10.5601 42.2912 10.1107 37.3445 10.8499C32.3978 11.5891 27.6983 13.4956 23.6347 16.4117C19.5711 19.3278 16.2603 23.1695 13.9763 27.6192C11.6923 32.0688 10.5006 36.9984 10.5 42ZM42 73.5C34.7688 73.5109 27.7559 71.0232 22.148 66.458C24.4053 63.2266 27.4097 60.5882 30.9057 58.7674C34.4017 56.9466 38.2858 55.9972 42.2275 56C46.1201 55.9969 49.9572 56.9225 53.4202 58.7C56.8833 60.4775 59.8723 63.0555 62.139 66.22C56.4875 70.9335 49.359 73.5103 42 73.5Z" fill="black"/>
</svg>
