<svg width="54" height="51" viewBox="0 0 54 51" fill="none" xmlns="http://www.w3.org/2000/svg">
<path d="M19.0581 0V5.08333H35.0969V0H40.4432V5.08333H51.1357C51.8447 5.08333 52.5246 5.35111 53.0259 5.82777C53.5272 6.30442 53.8088 6.95091 53.8088 7.625V48.2917C53.8088 48.9658 53.5272 49.6122 53.0259 50.0889C52.5246 50.5656 51.8447 50.8333 51.1357 50.8333H3.01932C2.31036 50.8333 1.63044 50.5656 1.12913 50.0889C0.627824 49.6122 0.346191 48.9658 0.346191 48.2917V7.625C0.346191 6.95091 0.627824 6.30442 1.12913 5.82777C1.63044 5.35111 2.31036 5.08333 3.01932 5.08333H13.7119V0H19.0581ZM48.4626 25.4167H5.69246V45.75H48.4626V25.4167ZM13.7119 10.1667H5.69246V20.3333H48.4626V10.1667H40.4432V15.25H35.0969V10.1667H19.0581V15.25H13.7119V10.1667Z" fill="white"/>
</svg>
